{"title":"The Kid.2010.LIMITED.720p.BRRip.x264.Feel-Free","uid":6073430,"size":2372656102,"categoryP":"video","categoryS":"hd___movies","magnet":"?xt=urn:btih:c3efe7c8a48d220bce4ba156dd1305a250541ab7&amp;dn=The+Kid.2010.LIMITED.720p.BRRip.x264.Feel-Free&amp;tr=udp%3A%2F%2Ftracker.openbittorrent.com%3A80&amp;tr=udp%3A%2F%2Fopen.demonii.com%3A1337&amp;tr=udp%3A%2F%2Ftracker.coppersurfer.tk%3A6969&amp;tr=udp%3A%2F%2Fexodus.desync.com%3A6969","seeders":0,"leechers":0,"uploader":"neon","files":7,"time":1293725158,"description":"Genre:Drama\nLanguage:English\n &lt;a href=&quot; http://www.imdb.com/title/tt1371160/&quot; rel=&quot;nofollow&quot; target=&quot;_NEW&quot;&gt; http://www.imdb.com/title/tt1371160/&lt;/a&gt;\nSource:LIMITED.1080p.BluRay.x264-NOHD\n\n\nFormat : Matroska\nFile size : 2.21 GiB\nDuration : 1h 51mn\nOverall bit rate : 2 837 Kbps\n\n\nVideo\nFormat settings, CABAC : Yes\nFormat settings, ReFrames : 4 frames\nCodec ID : V_MPEG4/ISO/AVC\nDuration : 1h 51mn\nBit rate : 2 500 Kbps\nWidth : 1 280 pixels\nHeight : 720 pixels\nDisplay aspect ratio : 16:9\nFrame rate mode : Variable\nFrame rate : 24.000 fps\nColor space : YUV\nChroma subsampling : 4:2:0\nBit depth : 8 bits\nScan type : Progressive\nBits/(Pixel*Frame) : 0.113\nStream size : 1.86 GiB (84%)\nWriting library : x264\n\n\nAudio\nID : 2\nFormat : AC-3\nFormat/Info : Audio Coding 3\nMode extension : CM (complete main)\nCodec ID : A_AC3\nDuration : 1h 51mn\nBit rate mode : Constant\nBit rate : 384 Kbps\nChannel(s) : 6 channels\nChannel positions : Front: L C R, Side: L R, LFE\nSampling rate : 48.0 KHz\nBit depth : 16 bits\nVideo delay : -1mn 5s\nStream size : 306 MiB (14%)\nLanguage : English\n\n\nPlot:\nAbout Kevin Lewis who grew up in poverty but survived to make a better life for himself and his family.\n","torrent":{"xt":"urn:btih:c3efe7c8a48d220bce4ba156dd1305a250541ab7","amp;dn":"The+Kid.2010.LIMITED.720p.BRRip.x264.Feel-Free","amp;tr":["udp%3A%2F%2Ftracker.openbittorrent.com%3A80","udp%3A%2F%2Fopen.demonii.com%3A1337","udp%3A%2F%2Ftracker.coppersurfer.tk%3A6969","udp%3A%2F%2Fexodus.desync.com%3A6969"],"infoHash":"c3efe7c8a48d220bce4ba156dd1305a250541ab7","infoHashBuffer":{"type":"Buffer","data":[195,239,231,200,164,141,34,11,206,75,161,86,221,19,5,162,80,84,26,183]},"announce":[],"urlList":[]}}